<?xml version="1.0" encoding="utf-8"?>
<!-- Generator: Adobe Illustrator 24.0.2, SVG Export Plug-In . SVG Version: 6.00 Build 0)  -->
<svg version="1.1" id="Capa_1" xmlns="http://www.w3.org/2000/svg" xmlns:xlink="http://www.w3.org/1999/xlink" x="0px" y="0px"
	 viewBox="0 0 283.46 283.46" style="enable-background:new 0 0 283.46 283.46;" xml:space="preserve">
<style type="text/css">
	.st0{fill:#FFFFFF;}
</style>
<g>
	<path class="st0" d="M279.23,141.85c-0.04,75.85-61.93,137.51-137.89,137.38C65.78,279.1,4.19,217.28,4.23,141.6
		C4.27,65.76,66.15,4.11,142.12,4.23C217.69,4.36,279.27,66.16,279.23,141.85z M141.99,79.31c-23.09,0-46.18-0.02-69.26,0.01
		c-12.89,0.01-19.51,6.53-19.54,19.46c-0.07,28.63-0.07,57.27,0,85.9c0.03,12.92,6.65,19.45,19.54,19.46
		c46,0.02,91.99,0.02,137.99,0c12.89-0.01,19.51-6.54,19.54-19.47c0.07-28.63,0.07-57.27,0-85.9c-0.03-12.92-6.65-19.44-19.55-19.45
		C187.81,79.29,164.9,79.31,141.99,79.31z"/>
	<path class="st0" d="M67.99,101.13c20.03,15.9,39.48,31.34,58.93,46.78c2.66,2.11,5.31,4.25,7.98,6.34
		c5.99,4.68,7.69,4.73,13.59,0.06c20.89-16.55,41.75-33.14,62.62-49.71c1.25-0.99,2.53-1.94,4.37-3.35
		c0.22,1.78,0.53,3.06,0.53,4.33c0.03,26.12-0.07,52.24,0.1,78.36c0.03,4.67-1.5,6.2-6.19,6.19c-45.44-0.14-90.89-0.1-136.33-0.05
		c-3.61,0-6.24-0.26-6.22-5.01c0.13-27.19,0.07-54.39,0.09-81.58C67.46,102.99,67.68,102.49,67.99,101.13z"/>
	<path class="st0" d="M82.12,93.68c39.94,0,79.19,0,118.45,0c0.36,0.35,0.72,0.7,1.08,1.05c-1.16,0.66-2.44,1.18-3.48,2.01
		c-17.67,13.99-35.32,28-52.92,42.08c-2.15,1.72-3.72,2.74-6.41,0.57c-18.25-14.69-36.64-29.21-54.97-43.8
		C83.38,95.18,83,94.64,82.12,93.68z"/>
</g>
</svg>
