<?xml version="1.0" encoding="utf-8"?>
<!-- Generator: Adobe Illustrator 24.0.2, SVG Export Plug-In . SVG Version: 6.00 Build 0)  -->
<svg version="1.1" id="Capa_1" xmlns="http://www.w3.org/2000/svg" xmlns:xlink="http://www.w3.org/1999/xlink" x="0px" y="0px"
	 viewBox="0 0 429 309" style="enable-background:new 0 0 429 309;" xml:space="preserve">
<style type="text/css">
	.st0{fill:#FFFFFF;stroke:#FFFFFF;stroke-miterlimit:10;}
</style>
<g>
	<path class="st0" d="M22.5,31.49c3.02-9,9.4-12.11,18.69-12.1c115.54,0.15,231.07,0.15,346.61,0c9.29-0.01,15.68,3.1,18.7,12.1
		c0,2,0,4,0,6c-3.04,8.98-9.4,12.11-18.7,12.1c-115.53-0.15-231.07-0.15-346.6,0c-9.29,0.01-15.67-3.11-18.7-12.1
		C22.5,35.49,22.5,33.49,22.5,31.49z"/>
	<path class="st0" d="M406.5,157.5c-3.04,8.98-9.4,12.11-18.7,12.1c-115.53-0.15-231.07-0.15-346.6,0
		c-9.29,0.01-15.67-3.11-18.7-12.1c0-2,0-4,0-6c3.02-9,9.4-12.11,18.69-12.1c115.54,0.15,231.08,0.15,346.61,0
		c9.29-0.01,15.68,3.1,18.7,12.1C406.5,153.5,406.5,155.5,406.5,157.5z"/>
	<path class="st0" d="M406.5,277.51c-3.04,8.98-9.4,12.11-18.7,12.1c-115.53-0.15-231.07-0.15-346.6,0
		c-9.29,0.01-15.67-3.11-18.7-12.1c0-2,0-4,0-6c3.02-9,9.4-12.11,18.69-12.1c115.54,0.15,231.08,0.15,346.61,0
		c9.29-0.01,15.68,3.1,18.7,12.1C406.5,273.51,406.5,275.51,406.5,277.51z"/>
</g>
</svg>
